<svg width="23" height="7" viewBox="0 0 23 7" fill="none" xmlns="http://www.w3.org/2000/svg">
<path d="M8.42898 2.27273C8.40767 2.0928 8.32126 1.95312 8.16974 1.85369C8.01823 1.75426 7.83239 1.70455 7.61222 1.70455C7.45123 1.70455 7.31037 1.73059 7.18963 1.78267C7.07008 1.83475 6.97656 1.90637 6.90909 1.99751C6.8428 2.08866 6.80966 2.19223 6.80966 2.30824C6.80966 2.4053 6.83274 2.48875 6.87891 2.55859C6.92625 2.62725 6.98662 2.68466 7.06001 2.73082C7.1334 2.7758 7.21035 2.81309 7.29084 2.84268C7.37133 2.87109 7.44531 2.89418 7.51278 2.91193L7.8821 3.01136C7.9768 3.03622 8.08215 3.07055 8.19815 3.11435C8.31534 3.15814 8.4272 3.21792 8.53374 3.29368C8.64145 3.36825 8.73023 3.46413 8.80007 3.58132C8.86991 3.69851 8.90483 3.84233 8.90483 4.01278C8.90483 4.20928 8.85334 4.38684 8.75036 4.54545C8.64856 4.70407 8.49941 4.83014 8.30291 4.92365C8.1076 5.01716 7.87027 5.06392 7.59091 5.06392C7.33049 5.06392 7.105 5.0219 6.91442 4.93786C6.72502 4.85381 6.57588 4.73662 6.46697 4.58629C6.35926 4.43596 6.2983 4.26136 6.28409 4.0625H6.73864C6.75047 4.19981 6.79664 4.31345 6.87713 4.40341C6.95881 4.49219 7.06179 4.55848 7.18608 4.60227C7.31155 4.64489 7.4465 4.66619 7.59091 4.66619C7.759 4.66619 7.90992 4.63897 8.04368 4.58452C8.17744 4.52888 8.28338 4.45194 8.36151 4.35369C8.43963 4.25426 8.47869 4.13826 8.47869 4.00568C8.47869 3.88494 8.44496 3.7867 8.37749 3.71094C8.31001 3.63518 8.22124 3.57363 8.11115 3.52628C8.00107 3.47893 7.8821 3.4375 7.75426 3.40199L7.30682 3.27415C7.02273 3.19247 6.79782 3.07588 6.6321 2.92436C6.46638 2.77285 6.38352 2.57457 6.38352 2.32955C6.38352 2.12595 6.43857 1.94839 6.54865 1.79688C6.65992 1.64418 6.80907 1.5258 6.99609 1.44176C7.1843 1.35653 7.39441 1.31392 7.62642 1.31392C7.8608 1.31392 8.06913 1.35594 8.25142 1.43999C8.43371 1.52285 8.57813 1.63648 8.68466 1.78089C8.79238 1.92531 8.8492 2.08925 8.85511 2.27273H8.42898ZM9.84189 6.02273C9.77086 6.02273 9.70753 6.01681 9.6519 6.00497C9.59627 5.99432 9.55779 5.98366 9.53649 5.97301L9.64302 5.60369C9.74482 5.62973 9.83478 5.6392 9.91291 5.6321C9.99103 5.625 10.0603 5.59008 10.1206 5.52734C10.1822 5.46579 10.2384 5.36577 10.2893 5.22727L10.3675 5.0142L9.35893 2.27273H9.81348L10.5663 4.44602H10.5947L11.3476 2.27273H11.8021L10.6444 5.39773C10.5924 5.53859 10.5278 5.65518 10.4509 5.74751C10.374 5.84103 10.2846 5.91027 10.1828 5.95526C10.0822 6.00024 9.96854 6.02273 9.84189 6.02273ZM12.7742 3.35938V5H12.3552V2.27273H12.76V2.69886H12.7955C12.8595 2.56037 12.9565 2.4491 13.0867 2.36506C13.2169 2.27983 13.385 2.23722 13.591 2.23722C13.7757 2.23722 13.9372 2.27509 14.0757 2.35085C14.2142 2.42543 14.3219 2.53906 14.3989 2.69176C14.4758 2.84328 14.5143 3.03504 14.5143 3.26705V5H14.0953V3.29545C14.0953 3.0812 14.0396 2.9143 13.9284 2.79474C13.8171 2.67401 13.6644 2.61364 13.4703 2.61364C13.3365 2.61364 13.2169 2.64264 13.1116 2.70064C13.0074 2.75864 12.9252 2.84328 12.8648 2.95455C12.8044 3.06581 12.7742 3.20076 12.7742 3.35938ZM16.4235 5.05682C16.1607 5.05682 15.934 4.99882 15.7434 4.88281C15.554 4.76562 15.4078 4.60227 15.3049 4.39276C15.2031 4.18205 15.1522 3.93703 15.1522 3.65767C15.1522 3.37831 15.2031 3.1321 15.3049 2.91903C15.4078 2.70478 15.5511 2.53788 15.7346 2.41832C15.9192 2.29759 16.1346 2.23722 16.3809 2.23722C16.5229 2.23722 16.6632 2.26089 16.8017 2.30824C16.9402 2.35559 17.0662 2.43253 17.1799 2.53906C17.2935 2.64441 17.3841 2.78409 17.4515 2.9581C17.519 3.1321 17.5527 3.34635 17.5527 3.60085V3.77841H15.4505V3.41619H17.1266C17.1266 3.26231 17.0958 3.125 17.0343 3.00426C16.9739 2.88352 16.8875 2.78823 16.775 2.71839C16.6638 2.64856 16.5324 2.61364 16.3809 2.61364C16.214 2.61364 16.0695 2.65507 15.9476 2.73793C15.8269 2.8196 15.734 2.92614 15.6689 3.05753C15.6038 3.18892 15.5712 3.32978 15.5712 3.48011V3.72159C15.5712 3.92756 15.6067 4.10215 15.6777 4.24538C15.7499 4.38743 15.85 4.49574 15.9778 4.57031C16.1056 4.6437 16.2542 4.6804 16.4235 4.6804C16.5336 4.6804 16.633 4.66501 16.7218 4.63423C16.8117 4.60227 16.8893 4.55492 16.9544 4.49219C17.0195 4.42827 17.0698 4.34896 17.1053 4.25426L17.5101 4.3679C17.4675 4.50521 17.3959 4.62595 17.2953 4.73011C17.1947 4.8331 17.0704 4.91359 16.9224 4.97159C16.7744 5.02841 16.6081 5.05682 16.4235 5.05682ZM19.4047 2.27273V2.62784H17.9345V2.27273H19.4047ZM18.3748 5V1.89631C18.3748 1.74006 18.4115 1.60985 18.4849 1.50568C18.5583 1.40151 18.6536 1.32339 18.7708 1.27131C18.888 1.21922 19.0117 1.19318 19.1419 1.19318C19.2449 1.19318 19.3289 1.20147 19.394 1.21804C19.4591 1.23461 19.5076 1.25 19.5396 1.2642L19.4189 1.62642C19.3975 1.61932 19.368 1.61044 19.3301 1.59979C19.2934 1.58913 19.2449 1.58381 19.1845 1.58381C19.046 1.58381 18.946 1.61873 18.8844 1.68857C18.824 1.7584 18.7939 1.8608 18.7939 1.99574V5H18.3748ZM20.9876 5.05682C20.7414 5.05682 20.5253 4.99822 20.3395 4.88104C20.1548 4.76385 20.0104 4.59991 19.9062 4.3892C19.8033 4.1785 19.7518 3.93229 19.7518 3.65057C19.7518 3.36648 19.8033 3.11849 19.9062 2.90661C20.0104 2.69472 20.1548 2.53018 20.3395 2.413C20.5253 2.29581 20.7414 2.23722 20.9876 2.23722C21.2338 2.23722 21.4492 2.29581 21.6339 2.413C21.8197 2.53018 21.9641 2.69472 22.0671 2.90661C22.1713 3.11849 22.2234 3.36648 22.2234 3.65057C22.2234 3.93229 22.1713 4.1785 22.0671 4.3892C21.9641 4.59991 21.8197 4.76385 21.6339 4.88104C21.4492 4.99822 21.2338 5.05682 20.9876 5.05682ZM20.9876 4.6804C21.1746 4.6804 21.3285 4.63246 21.4492 4.53658C21.57 4.4407 21.6593 4.31463 21.7173 4.15838C21.7753 4.00213 21.8043 3.83286 21.8043 3.65057C21.8043 3.46828 21.7753 3.29841 21.7173 3.14098C21.6593 2.98355 21.57 2.8563 21.4492 2.75923C21.3285 2.66217 21.1746 2.61364 20.9876 2.61364C20.8005 2.61364 20.6467 2.66217 20.5259 2.75923C20.4052 2.8563 20.3158 2.98355 20.2578 3.14098C20.1998 3.29841 20.1708 3.46828 20.1708 3.65057C20.1708 3.83286 20.1998 4.00213 20.2578 4.15838C20.3158 4.31463 20.4052 4.4407 20.5259 4.53658C20.6467 4.63246 20.8005 4.6804 20.9876 4.6804Z" fill="black"/>
<rect x="2.82843" y="0.00012207" width="1" height="4" rx="0.5" transform="rotate(45 2.82843 0.00012207)" fill="#FF2D2E"/>
<rect x="4.90002" y="2.09998" width="1" height="4" rx="0.5" transform="rotate(45 4.90002 2.09998)" fill="#41E88D"/>
<rect x="3.49664" y="4.91089" width="1" height="3.94502" rx="0.5" transform="rotate(135 3.49664 4.91089)" fill="#9747FF"/>
<rect x="2.09998" y="0.707153" width="1" height="4" rx="0.5" transform="rotate(-45 2.09998 0.707153)" fill="#F25A29"/>
<rect x="2.82843" y="0.00012207" width="1" height="2.75609" rx="0.5" transform="rotate(45 2.82843 0.00012207)" fill="#FF2D2E"/>
<rect x="3.79999" y="3.20483" width="1" height="2.43754" rx="0.5" transform="rotate(45 3.79999 3.20483)" fill="#41E88D"/>
</svg>
